<!-- Generated by IcoMoon.io -->
<svg version="1.1" xmlns="http://www.w3.org/2000/svg" width="205" height="32" viewBox="0 0 205 32">
<title>dotshero</title>
<path d="M155.333 29.616c0 0.982-0.764 1.778-1.706 1.778s-1.706-0.796-1.706-1.778c0-0.982 0.764-1.778 1.706-1.778s1.706 0.796 1.706 1.778z"></path>
<path d="M159.029 27.245c0 0.982-0.764 1.778-1.706 1.778s-1.706-0.796-1.706-1.778c0-0.982 0.764-1.778 1.706-1.778s1.706 0.796 1.706 1.778z"></path>
<path d="M163.292 24.578c0 0.982-0.764 1.778-1.706 1.778s-1.706-0.796-1.706-1.778c0-0.982 0.764-1.778 1.706-1.778s1.706 0.796 1.706 1.778z"></path>
<path d="M167.273 22.206c0 0.982-0.764 1.778-1.706 1.778s-1.706-0.796-1.706-1.778c0-0.982 0.764-1.778 1.706-1.778s1.706 0.796 1.706 1.778z"></path>
<path d="M164.998 28.431c0 0.982-0.764 1.778-1.706 1.778s-1.706-0.796-1.706-1.778c0-0.982 0.764-1.778 1.706-1.778s1.706 0.796 1.706 1.778z"></path>
<path d="M168.694 26.060c0 0.982-0.764 1.778-1.706 1.778s-1.706-0.796-1.706-1.778c0-0.982 0.764-1.778 1.706-1.778s1.706 0.796 1.706 1.778z"></path>
<path d="M172.958 23.392c0 0.982-0.764 1.778-1.706 1.778s-1.706-0.796-1.706-1.778c0-0.982 0.764-1.778 1.706-1.778s1.706 0.796 1.706 1.778z"></path>
<path d="M176.939 21.021c0 0.982-0.764 1.778-1.706 1.778s-1.706-0.796-1.706-1.778c0-0.982 0.764-1.778 1.706-1.778s1.706 0.796 1.706 1.778z"></path>
<path d="M173.243 27.542c0 0.982-0.764 1.778-1.706 1.778s-1.706-0.796-1.706-1.778c0-0.982 0.764-1.778 1.706-1.778s1.706 0.796 1.706 1.778z"></path>
<path d="M176.94 25.171c0 0.982-0.764 1.778-1.706 1.778s-1.706-0.796-1.706-1.778c0-0.982 0.764-1.778 1.706-1.778s1.706 0.796 1.706 1.778z"></path>
<path d="M181.204 22.503c0 0.982-0.764 1.778-1.706 1.778s-1.706-0.796-1.706-1.778c0-0.982 0.764-1.778 1.706-1.778s1.706 0.796 1.706 1.778z"></path>
<path d="M185.183 20.132c0 0.982-0.764 1.778-1.706 1.778s-1.706-0.796-1.706-1.778c0-0.982 0.764-1.778 1.706-1.778s1.706 0.796 1.706 1.778z"></path>
<path d="M181.203 26.356c0 0.982-0.764 1.778-1.706 1.778s-1.706-0.796-1.706-1.778c0-0.982 0.764-1.778 1.706-1.778s1.706 0.796 1.706 1.778z"></path>
<path d="M184.897 23.985c0 0.982-0.764 1.778-1.706 1.778s-1.706-0.796-1.706-1.778c0-0.982 0.764-1.778 1.706-1.778s1.706 0.796 1.706 1.778z"></path>
<path d="M189.162 21.318c0 0.982-0.764 1.778-1.706 1.778s-1.706-0.796-1.706-1.778c0-0.982 0.764-1.778 1.706-1.778s1.706 0.796 1.706 1.778z"></path>
<path d="M193.143 18.947c0 0.982-0.764 1.778-1.706 1.778s-1.706-0.796-1.706-1.778c0-0.982 0.764-1.778 1.706-1.778s1.706 0.796 1.706 1.778z"></path>
<path d="M183.762 29.616c0 0.982-0.764 1.778-1.706 1.778s-1.706-0.796-1.706-1.778c0-0.982 0.764-1.778 1.706-1.778s1.706 0.796 1.706 1.778z"></path>
<path d="M187.458 27.245c0 0.982-0.764 1.778-1.706 1.778s-1.706-0.796-1.706-1.778c0-0.982 0.764-1.778 1.706-1.778s1.706 0.796 1.706 1.778z"></path>
<path d="M192.576 29.913c0 0.982-0.764 1.778-1.706 1.778s-1.706-0.796-1.706-1.778c0-0.982 0.764-1.778 1.706-1.778s1.706 0.796 1.706 1.778z"></path>
<path d="M191.723 24.578c0 0.982-0.764 1.778-1.706 1.778s-1.706-0.796-1.706-1.778c0-0.982 0.764-1.778 1.706-1.778s1.706 0.796 1.706 1.778z"></path>
<path d="M196.84 27.245c0 0.982-0.764 1.778-1.706 1.778s-1.706-0.796-1.706-1.778c0-0.982 0.764-1.778 1.706-1.778s1.706 0.796 1.706 1.778z"></path>
<path d="M200.82 29.913c0 0.982-0.764 1.778-1.706 1.778s-1.706-0.796-1.706-1.778c0-0.982 0.764-1.778 1.706-1.778s1.706 0.796 1.706 1.778z"></path>
<path d="M195.703 22.206c0 0.982-0.764 1.778-1.706 1.778s-1.706-0.796-1.706-1.778c0-0.982 0.764-1.778 1.706-1.778s1.706 0.796 1.706 1.778z"></path>
<path d="M200.82 24.874c0 0.982-0.764 1.778-1.706 1.778s-1.706-0.796-1.706-1.778c0-0.982 0.764-1.778 1.706-1.778s1.706 0.796 1.706 1.778z"></path>
<path d="M204.8 27.542c0 0.982-0.764 1.778-1.706 1.778s-1.706-0.796-1.706-1.778c0-0.982 0.764-1.778 1.706-1.778s1.706 0.796 1.706 1.778z"></path>
<path d="M137.992 10.055c0 0.982-0.764 1.778-1.706 1.778s-1.706-0.796-1.706-1.778c0-0.982 0.764-1.778 1.706-1.778s1.706 0.796 1.706 1.778z"></path>
<path d="M141.688 7.684c0 0.982-0.764 1.778-1.706 1.778s-1.706-0.796-1.706-1.778c0-0.982 0.764-1.778 1.706-1.778s1.706 0.796 1.706 1.778z"></path>
<path d="M145.953 5.016c0 0.982-0.764 1.778-1.706 1.778s-1.706-0.796-1.706-1.778c0-0.982 0.764-1.778 1.706-1.778s1.706 0.796 1.706 1.778z"></path>
<path d="M149.932 2.645c0 0.982-0.764 1.778-1.706 1.778s-1.706-0.796-1.706-1.778c0-0.982 0.764-1.778 1.706-1.778s1.706 0.796 1.706 1.778z"></path>
<path d="M130.885 9.758c0 0.982-0.764 1.778-1.706 1.778s-1.706-0.796-1.706-1.778c0-0.982 0.764-1.778 1.706-1.778s1.706 0.796 1.706 1.778z"></path>
<path d="M134.579 7.387c0 0.982-0.764 1.778-1.706 1.778s-1.706-0.796-1.706-1.778c0-0.982 0.764-1.778 1.706-1.778s1.706 0.796 1.706 1.778z"></path>
<path d="M138.844 4.72c0 0.982-0.764 1.778-1.706 1.778s-1.706-0.796-1.706-1.778c0-0.982 0.764-1.778 1.706-1.778s1.706 0.796 1.706 1.778z"></path>
<path d="M142.824 2.349c0 0.982-0.764 1.778-1.706 1.778s-1.706-0.796-1.706-1.778c0-0.982 0.764-1.778 1.706-1.778s1.706 0.796 1.706 1.778z"></path>
<path d="M146.804 29.616c0 0.982-0.764 1.778-1.706 1.778s-1.706-0.796-1.706-1.778c0-0.982 0.764-1.778 1.706-1.778s1.706 0.796 1.706 1.778z"></path>
<path d="M150.499 27.245c0 0.982-0.764 1.778-1.706 1.778s-1.706-0.796-1.706-1.778c0-0.982 0.764-1.778 1.706-1.778s1.706 0.796 1.706 1.778z"></path>
<path d="M154.763 24.578c0 0.982-0.764 1.778-1.706 1.778s-1.706-0.796-1.706-1.778c0-0.982 0.764-1.778 1.706-1.778s1.706 0.796 1.706 1.778z"></path>
<path d="M158.744 22.206c0 0.982-0.764 1.778-1.706 1.778s-1.706-0.796-1.706-1.778c0-0.982 0.764-1.778 1.706-1.778s1.706 0.796 1.706 1.778z"></path>
<path d="M142.256 27.838c0 0.982-0.764 1.778-1.706 1.778s-1.706-0.796-1.706-1.778c0-0.982 0.764-1.778 1.706-1.778s1.706 0.796 1.706 1.778z"></path>
<path d="M145.952 25.467c0 0.982-0.764 1.778-1.706 1.778s-1.706-0.796-1.706-1.778c0-0.982 0.764-1.778 1.706-1.778s1.706 0.796 1.706 1.778z"></path>
<path d="M150.215 22.8c0 0.982-0.764 1.778-1.706 1.778s-1.706-0.796-1.706-1.778c0-0.982 0.764-1.778 1.706-1.778s1.706 0.796 1.706 1.778z"></path>
<path d="M154.196 20.429c0 0.982-0.764 1.778-1.706 1.778s-1.706-0.796-1.706-1.778c0-0.982 0.764-1.778 1.706-1.778s1.706 0.796 1.706 1.778z"></path>
<path d="M143.962 21.614c0 0.982-0.764 1.778-1.706 1.778s-1.706-0.796-1.706-1.778c0-0.982 0.764-1.778 1.706-1.778s1.706 0.796 1.706 1.778z"></path>
<path d="M147.656 19.243c0 0.982-0.764 1.778-1.706 1.778s-1.706-0.796-1.706-1.778c0-0.982 0.764-1.778 1.706-1.778s1.706 0.796 1.706 1.778z"></path>
<path d="M151.922 16.575c0 0.982-0.764 1.778-1.706 1.778s-1.706-0.796-1.706-1.778c0-0.982 0.764-1.778 1.706-1.778s1.706 0.796 1.706 1.778z"></path>
<path d="M155.902 14.204c0 0.982-0.764 1.778-1.706 1.778s-1.706-0.796-1.706-1.778c0-0.982 0.764-1.778 1.706-1.778s1.706 0.796 1.706 1.778z"></path>
<path d="M143.962 11.24c0 0.982-0.764 1.778-1.706 1.778s-1.706-0.796-1.706-1.778c0-0.982 0.764-1.778 1.706-1.778s1.706 0.796 1.706 1.778z"></path>
<path d="M147.656 8.869c0 0.982-0.764 1.778-1.706 1.778s-1.706-0.796-1.706-1.778c0-0.982 0.764-1.778 1.706-1.778s1.706 0.796 1.706 1.778z"></path>
<path d="M151.922 6.202c0 0.982-0.764 1.778-1.706 1.778s-1.706-0.796-1.706-1.778c0-0.982 0.764-1.778 1.706-1.778s1.706 0.796 1.706 1.778z"></path>
<path d="M155.902 3.831c0 0.982-0.764 1.778-1.706 1.778s-1.706-0.796-1.706-1.778c0-0.982 0.764-1.778 1.706-1.778s1.706 0.796 1.706 1.778z"></path>
<path d="M143.109 16.872c0 0.982-0.764 1.778-1.706 1.778s-1.706-0.796-1.706-1.778c0-0.982 0.764-1.778 1.706-1.778s1.706 0.796 1.706 1.778z"></path>
<path d="M146.805 14.501c0 0.982-0.764 1.778-1.706 1.778s-1.706-0.796-1.706-1.778c0-0.982 0.764-1.778 1.706-1.778s1.706 0.796 1.706 1.778z"></path>
<path d="M151.068 11.833c0 0.982-0.764 1.778-1.706 1.778s-1.706-0.796-1.706-1.778c0-0.982 0.764-1.778 1.706-1.778s1.706 0.796 1.706 1.778z"></path>
<path d="M155.048 9.462c0 0.982-0.764 1.778-1.706 1.778s-1.706-0.796-1.706-1.778c0-0.982 0.764-1.778 1.706-1.778s1.706 0.796 1.706 1.778z"></path>
<path d="M125.198 8.276c0 0.982-0.764 1.778-1.706 1.778s-1.706-0.796-1.706-1.778c0-0.982 0.764-1.778 1.706-1.778s1.706 0.796 1.706 1.778z"></path>
<path d="M128.895 5.905c0 0.982-0.764 1.778-1.706 1.778s-1.706-0.796-1.706-1.778c0-0.982 0.764-1.778 1.706-1.778s1.706 0.796 1.706 1.778z"></path>
<path d="M133.159 3.238c0 0.982-0.764 1.778-1.706 1.778s-1.706-0.796-1.706-1.778c0-0.982 0.764-1.778 1.706-1.778s1.706 0.796 1.706 1.778z"></path>
<path d="M131.169 10.055c0.942 0 1.706-0.796 1.706-1.778s-0.764-1.778-1.706-1.778c-0.942 0-1.706 0.796-1.706 1.778s0.764 1.778 1.706 1.778z"></path>
<path d="M52.732 21.475c0.145 0.985-0.504 1.906-1.449 2.057s-1.828-0.525-1.973-1.51c-0.145-0.985 0.504-1.906 1.449-2.057s1.828 0.525 1.973 1.51z"></path>
<path d="M56.090 18.504c0.145 0.985-0.504 1.906-1.449 2.057s-1.828-0.525-1.973-1.51c-0.145-0.985 0.504-1.906 1.449-2.057s1.828 0.525 1.973 1.51z"></path>
<path d="M59.974 15.144c0.145 0.985-0.504 1.906-1.449 2.057s-1.828-0.525-1.973-1.51c-0.145-0.985 0.504-1.906 1.449-2.057s1.828 0.525 1.973 1.51z"></path>
<path d="M63.617 12.128c0.145 0.985-0.504 1.906-1.449 2.057s-1.828-0.525-1.973-1.51c-0.145-0.985 0.504-1.906 1.449-2.057s1.828 0.525 1.973 1.51z"></path>
<path d="M2.132 19.067c0 0.997-0.779 1.805-1.741 1.805s-1.741-0.808-1.741-1.805c0-0.997 0.779-1.805 1.741-1.805s1.741 0.808 1.741 1.805z"></path>
<path d="M6.485 16.36c0 0.997-0.779 1.805-1.741 1.805s-1.741-0.808-1.741-1.805c0-0.997 0.779-1.805 1.741-1.805s1.741 0.808 1.741 1.805z"></path>
<path d="M10.546 13.953c0 0.997-0.779 1.805-1.741 1.805s-1.741-0.808-1.741-1.805c0-0.997 0.779-1.805 1.741-1.805s1.741 0.808 1.741 1.805z"></path>
<path d="M0.103 25.984c0 0.997-0.779 1.805-1.741 1.805s-1.741-0.808-1.741-1.805c0-0.997 0.779-1.805 1.741-1.805s1.741 0.808 1.741 1.805z"></path>
<path d="M3.874 23.578c0 0.997-0.779 1.805-1.741 1.805s-1.741-0.808-1.741-1.805c0-0.997 0.779-1.805 1.741-1.805s1.741 0.808 1.741 1.805z"></path>
<path d="M8.226 20.871c0 0.997-0.779 1.805-1.741 1.805s-1.741-0.808-1.741-1.805c0-0.997 0.779-1.805 1.741-1.805s1.741 0.808 1.741 1.805z"></path>
<path d="M12.287 18.465c0 0.997-0.779 1.805-1.741 1.805s-1.741-0.808-1.741-1.805c0-0.997 0.779-1.805 1.741-1.805s1.741 0.808 1.741 1.805z"></path>
<path d="M4.453 28.39c0 0.997-0.779 1.805-1.741 1.805s-1.741-0.808-1.741-1.805c0-0.997 0.779-1.805 1.741-1.805s1.741 0.808 1.741 1.805z"></path>
<path d="M8.225 25.984c0 0.997-0.779 1.805-1.741 1.805s-1.741-0.808-1.741-1.805c0-0.997 0.779-1.805 1.741-1.805s1.741 0.808 1.741 1.805z"></path>
<path d="M12.576 23.277c0 0.997-0.779 1.805-1.741 1.805s-1.741-0.808-1.741-1.805c0-0.997 0.779-1.805 1.741-1.805s1.741 0.808 1.741 1.805z"></path>
<path d="M16.638 20.871c0 0.997-0.779 1.805-1.741 1.805s-1.741-0.808-1.741-1.805c0-0.997 0.779-1.805 1.741-1.805s1.741 0.808 1.741 1.805z"></path>
<path d="M9.384 29.895c0 0.997-0.779 1.805-1.741 1.805s-1.741-0.808-1.741-1.805c0-0.997 0.779-1.805 1.741-1.805s1.741 0.808 1.741 1.805z"></path>
<path d="M13.156 27.488c0 0.997-0.779 1.805-1.741 1.805s-1.741-0.808-1.741-1.805c0-0.997 0.779-1.805 1.741-1.805s1.741 0.808 1.741 1.805z"></path>
<path d="M17.509 24.781c0 0.997-0.779 1.805-1.741 1.805s-1.741-0.808-1.741-1.805c0-0.997 0.779-1.805 1.741-1.805s1.741 0.808 1.741 1.805z"></path>
<path d="M21.569 22.375c0 0.997-0.779 1.805-1.741 1.805s-1.741-0.808-1.741-1.805c0-0.997 0.779-1.805 1.741-1.805s1.741 0.808 1.741 1.805z"></path>
<path d="M15.768 30.196c0 0.997-0.779 1.805-1.741 1.805s-1.741-0.808-1.741-1.805c0-0.997 0.779-1.805 1.741-1.805s1.741 0.808 1.741 1.805z"></path>
<path d="M19.539 27.789c0 0.997-0.779 1.805-1.741 1.805s-1.741-0.808-1.741-1.805c0-0.997 0.779-1.805 1.741-1.805s1.741 0.808 1.741 1.805z"></path>
<path d="M23.891 25.082c0 0.997-0.779 1.805-1.741 1.805s-1.741-0.808-1.741-1.805c0-0.997 0.779-1.805 1.741-1.805s1.741 0.808 1.741 1.805z"></path>
<path d="M27.952 22.676c0 0.997-0.779 1.805-1.741 1.805s-1.741-0.808-1.741-1.805c0-0.997 0.779-1.805 1.741-1.805s1.741 0.808 1.741 1.805z"></path>
<path d="M23.311 30.195c0 0.997-0.779 1.805-1.741 1.805s-1.741-0.808-1.741-1.805c0-0.997 0.779-1.805 1.741-1.805s1.741 0.808 1.741 1.805z"></path>
<path d="M27.082 27.789c0 0.997-0.779 1.805-1.741 1.805s-1.741-0.808-1.741-1.805c0-0.997 0.779-1.805 1.741-1.805s1.741 0.808 1.741 1.805z"></path>
<path d="M31.434 25.082c0 0.997-0.779 1.805-1.741 1.805s-1.741-0.808-1.741-1.805c0-0.997 0.779-1.805 1.741-1.805s1.741 0.808 1.741 1.805z"></path>
<path d="M35.496 22.676c0 0.997-0.779 1.805-1.741 1.805s-1.741-0.808-1.741-1.805c0-0.997 0.779-1.805 1.741-1.805s1.741 0.808 1.741 1.805z"></path>
<path d="M29.692 29.895c0 0.997-0.779 1.805-1.741 1.805s-1.741-0.808-1.741-1.805c0-0.997 0.779-1.805 1.741-1.805s1.741 0.808 1.741 1.805z"></path>
<path d="M33.463 27.488c0 0.997-0.779 1.805-1.741 1.805s-1.741-0.808-1.741-1.805c0-0.997 0.779-1.805 1.741-1.805s1.741 0.808 1.741 1.805z"></path>
<path d="M37.816 24.781c0 0.997-0.779 1.805-1.741 1.805s-1.741-0.808-1.741-1.805c0-0.997 0.779-1.805 1.741-1.805s1.741 0.808 1.741 1.805z"></path>
<path d="M41.876 22.375c0 0.997-0.779 1.805-1.741 1.805s-1.741-0.808-1.741-1.805c0-0.997 0.779-1.805 1.741-1.805s1.741 0.808 1.741 1.805z"></path>
<path d="M36.944 29.594c0 0.997-0.779 1.805-1.741 1.805s-1.741-0.808-1.741-1.805c0-0.997 0.779-1.805 1.741-1.805s1.741 0.808 1.741 1.805z"></path>
<path d="M40.716 27.187c0 0.997-0.779 1.805-1.741 1.805s-1.741-0.808-1.741-1.805c0-0.997 0.779-1.805 1.741-1.805s1.741 0.808 1.741 1.805z"></path>
<path d="M45.068 24.481c0 0.997-0.779 1.805-1.741 1.805s-1.741-0.808-1.741-1.805c0-0.997 0.779-1.805 1.741-1.805s1.741 0.808 1.741 1.805z"></path>
<path d="M49.129 22.074c0 0.997-0.779 1.805-1.741 1.805s-1.741-0.808-1.741-1.805c0-0.997 0.779-1.805 1.741-1.805s1.741 0.808 1.741 1.805z"></path>
<path d="M43.617 21.773c0 0.997-0.779 1.805-1.741 1.805s-1.741-0.808-1.741-1.805c0-0.997 0.779-1.805 1.741-1.805s1.741 0.808 1.741 1.805z"></path>
<path d="M47.388 19.367c0 0.997-0.779 1.805-1.741 1.805s-1.741-0.808-1.741-1.805c0-0.997 0.779-1.805 1.741-1.805s1.741 0.808 1.741 1.805z"></path>
<path d="M51.74 16.66c0 0.997-0.779 1.805-1.741 1.805s-1.741-0.808-1.741-1.805c0-0.997 0.779-1.805 1.741-1.805s1.741 0.808 1.741 1.805z"></path>
<path d="M55.801 14.254c0 0.997-0.779 1.805-1.741 1.805s-1.741-0.808-1.741-1.805c0-0.997 0.779-1.805 1.741-1.805s1.741 0.808 1.741 1.805z"></path>
</svg>
