<svg width="10" height="10" viewBox="0 0 10 10" fill="none" xmlns="http://www.w3.org/2000/svg">
<path d="M5.62687 5.16563L9.31132 1.44304C9.38413 1.35714 9.42217 1.24664 9.41785 1.13363C9.41353 1.02061 9.36716 0.91341 9.28801 0.833437C9.20886 0.753465 9.10275 0.706615 8.9909 0.702249C8.87904 0.697884 8.76967 0.736325 8.68465 0.809891L5.00021 4.53248L1.31576 0.8054C1.23207 0.720843 1.11856 0.67334 1.00021 0.67334C0.881849 0.67334 0.76834 0.720843 0.68465 0.8054C0.600959 0.889957 0.553942 1.00464 0.553942 1.12422C0.553942 1.2438 0.600959 1.35849 0.68465 1.44304L4.37354 5.16563L0.68465 8.88822C0.638124 8.92847 0.600337 8.97801 0.57366 9.03372C0.546983 9.08943 0.531992 9.15011 0.529628 9.21195C0.527264 9.2738 0.537577 9.33547 0.559922 9.39309C0.582266 9.45071 0.616158 9.50305 0.659472 9.54681C0.702785 9.59057 0.754584 9.62481 0.811617 9.64739C0.86865 9.66996 0.929687 9.68039 0.990896 9.678C1.0521 9.67561 1.11216 9.66046 1.1673 9.63351C1.22244 9.60656 1.27147 9.56838 1.31132 9.52137L5.00021 5.79878L8.68465 9.52137C8.76967 9.59494 8.87904 9.63338 8.9909 9.62901C9.10275 9.62465 9.20886 9.5778 9.28801 9.49782C9.36716 9.41785 9.41353 9.31065 9.41785 9.19763C9.42217 9.08462 9.38413 8.97412 9.31132 8.88822L5.62687 5.16563Z" fill="#131313"/>
</svg>
